<svg width="100" height="75" viewBox="0 0 100 75" fill="none" xmlns="http://www.w3.org/2000/svg">
  <!-- Background blob (same as form card) -->
  <g transform="translate(15, 3) scale(1, 1)">
    <svg width="70" height="70" viewBox="0 0 70 70" overflow="visible">
      <path fill-rule="evenodd" clip-rule="evenodd" d="M67.3614 38.0488C66.463 47.751 66.9589 58.4081 59.5111 64.7036C51.8742 71.1589 41.0174 70.7223 31.2449 68.5772C21.3488 66.4051 12.0703 61.8045 6.83614 53.1416C0.916342 43.3439 -2.61983 31.1093 2.38798 20.817C7.38183 10.5534 19.4839 7.32183 30.5381 4.42822C42.261 1.35955 56.1512 -3.76355 65.095 4.40236C73.8358 12.3829 68.4519 26.2726 67.3614 38.0488Z" fill="#E7F6F8"/>
    </svg>
  </g>
  <!-- Clipboard with magnifying glass -->
  <g transform="translate(25, 8)">
    <!-- Clipboard body -->
    <rect x="8" y="12" width="30" height="38" rx="2" fill="white" stroke="#1B1B1B" stroke-width="2.5"/>
    <!-- Clipboard tab -->
    <rect x="16" y="8" width="14" height="8" rx="2" fill="white" stroke="#1B1B1B" stroke-width="2.5"/>
    <!-- Document lines -->
    <line x1="15" y1="24" x2="31" y2="24" stroke="#1B1B1B" stroke-width="2" stroke-linecap="round"/>
    <line x1="15" y1="30" x2="31" y2="30" stroke="#1B1B1B" stroke-width="2" stroke-linecap="round"/>
    <line x1="15" y1="36" x2="25" y2="36" stroke="#1B1B1B" stroke-width="2" stroke-linecap="round"/>
    <!-- Magnifying glass -->
    <circle cx="38" cy="42" r="8" fill="white" stroke="#1B1B1B" stroke-width="2.5"/>
    <line x1="44" y1="48" x2="50" y2="54" stroke="#1B1B1B" stroke-width="3" stroke-linecap="round"/>
  </g>
</svg>
